<svg width="512" height="512" viewBox="0 0 512 512" fill="none" xmlns="http://www.w3.org/2000/svg">
  <!-- Background -->
  <rect width="512" height="512" rx="64" fill="#007bff"/>
  
  <!-- Train icon -->
  <g transform="translate(64, 128)">
    <!-- Main locomotive body -->
    <rect x="0" y="80" width="320" height="120" rx="16" fill="#ffffff"/>
    
    <!-- Locomotive front -->
    <path d="M320 80 L384 120 L384 160 L320 200 Z" fill="#ffffff"/>
    
    <!-- Windows -->
    <rect x="40" y="110" width="60" height="40" rx="8" fill="#007bff"/>
    <rect x="120" y="110" width="60" height="40" rx="8" fill="#007bff"/>
    <rect x="200" y="110" width="60" height="40" rx="8" fill="#007bff"/>
    
    <!-- Wheels -->
    <circle cx="60" cy="220" r="20" fill="#333333"/>
    <circle cx="140" cy="220" r="20" fill="#333333"/>
    <circle cx="220" cy="220" r="20" fill="#333333"/>
    <circle cx="300" cy="220" r="20" fill="#333333"/>
    
    <!-- Wheel centers -->
    <circle cx="60" cy="220" r="8" fill="#666666"/>
    <circle cx="140" cy="220" r="8" fill="#666666"/>
    <circle cx="220" cy="220" r="8" fill="#666666"/>
    <circle cx="300" cy="220" r="8" fill="#666666"/>
    
    <!-- Lightning bolt (energy symbol) -->
    <path d="M160 40 L200 40 L170 80 L190 80 L150 120 L180 80 L160 80 Z" fill="#ffd43b"/>
  </g>
  
  <!-- Rail tracks -->
  <rect x="0" y="380" width="512" height="8" fill="#666666"/>
  <rect x="0" y="400" width="512" height="8" fill="#666666"/>
  
  <!-- Rail ties -->
  <rect x="40" y="375" width="12" height="38" fill="#8b4513"/>
  <rect x="80" y="375" width="12" height="38" fill="#8b4513"/>
  <rect x="120" y="375" width="12" height="38" fill="#8b4513"/>
  <rect x="160" y="375" width="12" height="38" fill="#8b4513"/>
  <rect x="200" y="375" width="12" height="38" fill="#8b4513"/>
  <rect x="240" y="375" width="12" height="38" fill="#8b4513"/>
  <rect x="280" y="375" width="12" height="38" fill="#8b4513"/>
  <rect x="320" y="375" width="12" height="38" fill="#8b4513"/>
  <rect x="360" y="375" width="12" height="38" fill="#8b4513"/>
  <rect x="400" y="375" width="12" height="38" fill="#8b4513"/>
  <rect x="440" y="375" width="12" height="38" fill="#8b4513"/>
  <rect x="480" y="375" width="12" height="38" fill="#8b4513"/>
</svg>